<?xml version="1.0" encoding="utf-8"?>
<!DOCTYPE svg PUBLIC "-//W3C//DTD SVG 1.0//EN" "http://www.w3.org/TR/2001/REC-SVG-20010904/DTD/svg10.dtd">
<svg version="1.0" xmlns="http://www.w3.org/2000/svg" width="342px" height="202px" viewBox="0 0 342 202" preserveAspectRatio="xMidYMid meet">
 <g fill="#05d2f7">
  <path d="M155 130.5 c0 -2.3 0.4 -2.5 4.5 -2.5 3.7 0 4.5 0.3 4.5 1.9 0 2.1 -1.9 3.1 -6.1 3.1 -2.4 0 -2.9 -0.4 -2.9 -2.5z"/>
  <path d="M147.6 108.5 c-0.3 -0.9 -0.6 -4.8 -0.6 -8.6 0 -6.2 -0.2 -7 -1.7 -6.5 -4.2 1.2 -15.6 2.7 -26.5 3.3 -11.6 0.6 -11.8 0.6 -11.8 -1.5 0 -1.8 -0.6 -2.2 -3.5 -2.2 -2.3 0 -3.5 -0.5 -3.5 -1.4 0 -1.9 3.2 -2.6 12.8 -2.6 4.5 0 12.8 -0.7 18.5 -1.5 16.4 -2.4 15.7 -2.1 15.7 -6.2 0 -3.5 0 -3.5 3.8 -2.9 2 0.3 7 0.7 11 0.8 5.7 0.2 7.2 0.6 7.2 1.8 0 0.8 0.3 2.5 0.6 3.6 0.4 1.6 0 2.3 -1.5 2.7 -1.9 0.5 -2.1 1.4 -2.3 11.3 l-0.3 10.9 -8.6 0.3 c-7.2 0.2 -8.8 0 -9.3 -1.3z"/>
 </g>
 <g fill="#08c6f0">
  <path d="M147.9 131.8 c-0.1 -0.7 0 -2.2 0 -3.4 0.3 -4 -1.7 -4.3 -23.5 -4.6 l-20.9 -0.3 -0.3 -3.6 -0.3 -3.7 31.6 -0.7 c17.4 -0.4 31.7 -0.6 31.9 -0.4 0.2 0.2 0.1 4.1 -0.2 8.6 -0.4 7.6 -0.6 8.1 -2.8 8.6 -1.3 0.2 -2.4 0 -2.4 -0.4 0 -0.5 -0.7 -0.9 -1.5 -0.9 -0.8 0 -1.5 0.5 -1.5 1 0 1.5 -10 1.3 -10.1 -0.2z"/>
  <path d="M149 108.5 c0 -1.6 4.2 -2 9.9 -0.9 5.3 1.1 3.4 2.4 -3.4 2.4 -5.1 0 -6.5 -0.3 -6.5 -1.5z"/>
  <path d="M95 93.5 l0 -3.5 5.3 0 c8 0 21.3 -0.8 26.5 -1.6 2.6 -0.3 4.4 -0.3 4 0.1 -0.4 0.4 -4.1 1.1 -8.2 1.6 -4.1 0.4 -8.8 1.5 -10.3 2.3 l-2.8 1.5 3.3 0.1 c2.2 0 3.2 0.5 3.2 1.5 0 1.2 -1.8 1.5 -10.5 1.5 l-10.5 0 0 -3.5z"/>
  <path d="M123.2 94.8 c0.7 -2 4.8 -2.3 4.8 -0.4 0 1.1 -0.9 1.6 -2.6 1.6 -1.6 0 -2.4 -0.5 -2.2 -1.2z"/>
  <path d="M165 86.9 c0 -0.5 -0.6 -0.9 -1.4 -0.9 -0.8 0 -1.8 -0.9 -2.1 -2.1 -0.6 -1.9 -1.3 -2 -7.1 -1.7 -7.4 0.4 -7.4 0.4 -7.4 -8.8 0 -5.7 0.2 -6.4 2 -6.4 1.1 0 2 0.5 2 1.1 0 0.9 2.2 1 7.5 0.6 l7.5 -0.5 0 6 c0 4.9 0.3 5.9 1.5 5.4 1.2 -0.4 1.5 0.3 1.5 3.3 0 3 -0.4 4 -2 4.4 -1.1 0.3 -2 0.1 -2 -0.4z"/>
 </g>
 <g fill="#07b5e4">
  <path d="M161 131.5 c0 -0.6 0.5 -1.6 1.1 -2.2 0.6 -0.6 0.9 -3.6 0.7 -7.2 -0.3 -6.7 0 -7.1 5.8 -7.1 2.9 0 3.4 0.3 3.4 2.4 0 1.2 0.3 5 0.6 8.4 l0.7 6 -6.2 0.4 c-3.8 0.2 -6.1 -0.1 -6.1 -0.7z"/>
  <path d="M97.7 123.3 c-1.4 -0.4 -1.6 -1.1 -1.1 -4.1 0.4 -2 0.7 -3.8 0.8 -3.9 0.1 -0.2 3.3 0 7.2 0.4 5.9 0.5 6.5 0.8 4.1 1.6 -3.5 1.1 -3.4 2.5 0.3 3.8 1.7 0.6 3 1.5 3 2 0 0.9 -11 1.1 -14.3 0.2z"/>
  <path d="M114 123.1 c0 -1.3 1.7 -1.7 5.6 -1.3 5 0.6 4.2 2.2 -1.1 2.2 -2.5 0 -4.5 -0.4 -4.5 -0.9z"/>
  <path d="M87.3 97.2 c-3.5 -0.3 -4.2 -0.7 -4.8 -2.9 -0.3 -1.4 -0.3 -2.8 0 -3.2 0.4 -0.3 4.6 -0.8 9.3 -0.9 7.1 -0.3 8.5 -0.1 7.5 0.9 -2.1 2.1 -1.5 2.6 3.7 3.3 2.8 0.4 5 1.1 5 1.6 0 0.9 -13.6 1.7 -20.7 1.2z"/>
  <path d="M147.6 71.3 c-0.3 -2.5 -0.6 -7.7 -0.6 -11.4 0 -6.2 0.2 -6.9 2 -6.9 1.2 0 2 0.7 2 1.6 0 1.1 0.5 1.4 1.8 0.9 3.9 -1.5 10.9 -1.8 11.8 -0.4 0.4 0.7 0.9 4.6 1 8.7 0.2 5.7 -0.1 7.5 -1.3 7.9 -1.2 0.5 -1.2 0.7 -0.1 1.4 1 0.7 0.9 0.9 -0.4 0.9 -0.9 0 -2 -0.4 -2.3 -1 -1.1 -1.8 -8.1 -1.1 -10.7 1 l-2.5 1.9 -0.7 -4.6z"/>
 </g>
 <g fill="#05acdf">
  <path d="M169.1 126.3 c-0.1 -3.2 -0.3 -6.9 -0.4 -8.3 -0.2 -2.1 0.3 -2.5 2.9 -2.8 l3.1 -0.3 0.7 6.2 c1.1 10.7 1 10.9 -2.7 10.9 l-3.3 0 -0.3 -5.7z"/>
  <path d="M92.5 121.4 c-1.8 -1.4 -1.8 -1.7 -0.4 -2.7 0.8 -0.7 1.8 -2 2.2 -3.1 0.5 -1.1 1.3 -1.6 2.3 -1.2 0.9 0.3 2.5 0.6 3.7 0.6 1.6 0 1.8 0.3 0.9 0.9 -0.7 0.4 -1.2 2.1 -1 3.7 0.3 2.6 0 2.9 -2.7 3.1 -1.6 0.2 -3.9 -0.4 -5 -1.3z"/>
  <path d="M76.5 98.1 c-1.4 -0.9 -2.5 -1.8 -2.5 -2.1 0 -2 12.5 -6.5 13.6 -4.9 0.3 0.5 0 0.9 -0.5 0.9 -0.6 0 -1.1 0.5 -1.1 1 0 0.6 1.5 1 3.3 1 3.9 0 7.7 1 7.7 2 0 0.4 -4 1.3 -9 2.1 -8 1.3 -9.3 1.3 -11.5 0z"/>
  <path d="M147.8 59.9 c-0.3 -1.8 -0.5 -5.5 -0.4 -8.3 0.1 -5.7 0.5 -5.9 11.9 -7.1 l6.2 -0.7 0 9.9 c0 5.4 -0.1 8.9 -0.3 7.8 -0.5 -3.5 -4.4 -4.5 -10.2 -2.5 -2.9 1 -5.6 2.3 -6 3 -0.5 0.7 -0.9 -0.1 -1.2 -2.1z"/>
 </g>
 <g fill="#04a3d9">
  <path d="M171 131.2 c0 -0.4 0.5 -1.3 1.1 -1.9 0.7 -0.7 0.8 -2.2 0.2 -4.4 -0.4 -1.9 -0.8 -4.7 -0.8 -6.4 0 -2.6 0.4 -3 3.2 -3.3 l3.2 -0.3 0.7 6 c0.6 5.9 0.8 6.1 3.5 6.1 3.6 0 4.1 3.4 0.7 4.4 -3.3 0.9 -11.8 0.7 -11.8 -0.2z"/>
  <path d="M96 122.1 c0 -0.5 -0.8 -0.8 -1.7 -0.7 -2 0.1 -2.8 -3.1 -1.9 -7 0.6 -2.3 0.7 -2.4 3.2 -0.7 1.7 1.1 2.4 2.3 2.1 3.5 -0.3 1 -0.1 2.1 0.4 2.4 1.5 0.9 1 3.4 -0.6 3.4 -0.8 0 -1.5 -0.4 -1.5 -0.9z"/>
  <path d="M73.3 100.3 c-2.4 -0.9 -1.4 -4 1.7 -5.3 2.4 -1 3.3 -1 4.5 0 0.8 0.7 2.2 1 3 0.6 1.8 -0.6 4.5 0.2 4.5 1.5 0 0.5 -1.1 0.7 -2.5 0.3 -1.4 -0.3 -2.5 -0.2 -2.5 0.3 0 2 -5.9 3.8 -8.7 2.6z"/>
  <path d="M147 45.2 l0 -9.2 5.7 0 c7.3 0 16.3 2.1 16.3 3.7 0 0.7 -0.7 1.3 -1.5 1.3 -0.9 0 -1.5 0.9 -1.5 2.5 0 2.8 -2.9 4.5 -7.8 4.6 -3.9 0 -9.7 2.2 -9.7 3.6 0 0.6 -0.3 1.5 -0.7 1.9 -0.5 0.4 -0.8 -3.4 -0.8 -8.4z"/>
 </g>
 <g fill="#059ad3">
  <path d="M175.4 126.3 c0 -3.2 -0.3 -7 -0.7 -8.4 -0.6 -2.5 -0.4 -2.7 5 -3.8 3.1 -0.6 6 -1.1 6.3 -1.1 0.4 0 1 2.8 1.2 6.2 0.3 3.5 1 6.4 1.6 6.6 2 0.6 1.3 4 -0.9 4.7 -1.1 0.4 -3.6 0.4 -5.5 0 -2.1 -0.3 -3.4 -0.2 -3.4 0.5 0 0.5 -0.8 1 -1.8 1 -1.4 0 -1.7 -0.9 -1.8 -5.7z"/>
  <path d="M90.8 120 c-2.7 -2.1 -5.8 -7.7 -5.8 -10.4 0 -2.4 7.9 -2.3 8.6 0.2 0.3 0.9 1 2.6 1.4 3.7 0.5 1.1 0.7 3.1 0.5 4.5 -0.2 1.4 -0.4 2.8 -0.4 3.3 -0.2 1.2 -1.7 0.8 -4.3 -1.3z"/>
  <path d="M61 110.2 c0 -1.9 5.7 -9.2 9.4 -12.1 3.8 -3 6.3 -4.1 5.1 -2.1 -0.3 0.6 -0.3 1 0.2 1 0.4 0 1.4 0.4 2.1 0.9 1 0.6 -0.3 2.4 -4.7 6.9 -4.8 4.9 -6.7 6.2 -9.1 6.2 -1.6 0 -3 -0.4 -3 -0.8z"/>
  <path d="M287.5 42.2 c-2.5 -2.6 -4.5 -5 -4.5 -5.4 0 -0.8 5.5 -4.8 6.5 -4.8 1.2 0 4.6 4.2 5.7 7 0.5 1.3 0.7 3.4 0.4 4.6 -1 4 -3.4 3.6 -8.1 -1.4z"/>
  <path d="M147 33.6 c0 -11.2 -0.7 -10.6 13.6 -10.6 11.7 0 12.4 0.1 12.4 2 0 1.4 -0.7 2 -2.1 2 -1.7 0 -2 0.4 -1.5 2.3 0.4 1.2 0.9 4.4 1.3 7.1 l0.6 4.9 -6.4 -0.7 c-3.5 -0.4 -8.5 -1 -11.1 -1.3 -3.2 -0.3 -4.8 -0.1 -4.8 0.6 0 0.6 -0.4 1.1 -1 1.1 -0.6 0 -1 -3.1 -1 -7.4z"/>
 </g>
 <g fill="#047dbe">
  <path d="M275.5 183.7 c-1.6 -2.3 -4 -5.7 -5.3 -7.4 l-2.3 -3.3 3.1 0 c2 0 3 0.5 3 1.5 0 0.8 0.7 1.5 1.5 1.5 0.9 0 1.5 0.9 1.5 2.5 0 1.6 0.6 2.5 1.5 2.5 1 0 1.5 1.1 1.5 3.5 0 1.9 -0.3 3.5 -0.7 3.5 -0.5 -0.1 -2.1 -2 -3.8 -4.3z"/>
  <path d="M238.6 152.1 c-2.1 -2.3 -1.8 -7 0.6 -8.5 1.1 -0.7 2.6 -0.7 4.5 0 2.2 0.7 2.9 1.6 3.1 4.4 0.6 5.5 -4.6 8 -8.2 4.1z"/>
  <path d="M186.2 129.3 c-1.3 -1.3 -3.4 -12.3 -2.4 -12.3 0.2 0 -0.1 -0.7 -0.8 -1.5 -1 -1.2 -0.9 -1.6 0.6 -2.1 4.6 -1.4 8.4 -3.5 11.6 -6.3 3.3 -2.8 3.5 -2.9 4.6 -1 0.7 1 1.2 4.8 1.2 8.4 0 5.8 0.2 6.5 2 6.5 1.1 0 2 0.4 2 0.8 0 1.1 -6.1 4.5 -12.5 7 -4.3 1.7 -5.2 1.8 -6.3 0.5z"/>
  <path d="M58.8 119.2 c-2.7 -1.6 -3.8 -4.2 -1.8 -4.2 0.5 0 2 -1.8 3.2 -4 1.3 -2.2 2.8 -3.8 3.5 -3.5 0.7 0.2 1.5 0 1.8 -0.5 0.8 -1.3 4.5 -1.3 4.5 0 0 0.5 -1.2 2.6 -2.6 4.7 -1.8 2.7 -2.4 4.6 -2 6.6 0.5 2.3 0.2 2.7 -1.7 2.7 -1.2 0 -3.4 -0.8 -4.9 -1.8z"/>
  <path d="M301.3 51.5 c-5.9 -2.7 -6.4 -4.1 -3 -7.3 3.6 -3.4 5.7 -2.9 5.7 1.3 0 3.1 0.3 3.5 2.5 3.5 2 0 2.5 0.5 2.5 2.5 0 3.1 -1.1 3.1 -7.7 0z"/>
  <path d="M187.9 44.7 c-3.8 -1.9 -7.8 -3 -12.6 -3.4 l-7 -0.6 -1.2 -5.1 c-0.6 -2.8 -2 -6.5 -3 -8.2 l-1.9 -3.1 5.7 -0.6 c3.1 -0.4 6.6 -0.4 7.6 -0.2 1.1 0.2 3.6 0.7 5.6 1 l3.7 0.5 -0.6 6.5 c-0.4 5.6 -0.2 6.5 1.2 6.5 0.9 0 1.6 0.5 1.6 1 0 0.6 0.9 1 2.1 1 2.8 0 5.1 2.5 4.7 5.2 l-0.3 2.3 -5.6 -2.8z"/>
  <path d="M295 42.6 c0 -0.8 -0.6 -1.7 -1.2 -1.9 -0.8 -0.3 -0.6 -0.6 0.5 -0.6 1.1 -0.1 1.7 0.6 1.7 1.9 0 1.1 -0.2 2 -0.5 2 -0.3 0 -0.5 -0.6 -0.5 -1.4z"/>
  <path d="M286 36.6 c0 -5.4 2.9 -7.6 5 -3.7 0.8 1.6 0.5 2.3 -2 4.1 l-3 2.1 0 -2.5z"/>
 </g>
 <g fill="#0476b7">
  <path d="M311.3 191.5 c-4.5 -1.9 -4.4 -4.5 0.2 -4.5 1.9 0 3.5 0.5 3.5 1 0 0.6 0.9 1 2 1 1.3 0 2 0.7 2 2 0 2.4 -2.9 2.6 -7.7 0.5z"/>
  <path d="M257.7 191.4 c-0.4 -0.4 -0.7 -8.1 -0.7 -17.1 l0 -16.3 3.9 0 c3.4 0 4.5 0.6 8.1 4.8 2.3 2.6 5.6 6.6 7.3 9 1.7 2.3 3.4 4.2 3.9 4.2 0.4 0 0.8 -4 0.8 -8.9 0 -9.7 0.2 -10.1 6 -9.1 2.5 0.3 3.5 1 3.4 2.3 0 0.9 -0.1 8.5 -0.2 16.7 l-0.2 15 -3.8 0 c-2.8 0 -4.4 -0.6 -5.8 -2.2 -3.3 -3.9 -6.4 -8.7 -6.4 -9.9 0 -0.7 -0.3 -0.9 -0.7 -0.6 -0.3 0.4 -1.4 -0.7 -2.4 -2.3 -1.1 -1.7 -2.3 -3 -2.8 -3 -0.6 0 -1.2 3.9 -1.3 8.8 l-0.3 8.7 -4 0.3 c-2.3 0.2 -4.4 0 -4.8 -0.4z"/>
  <path d="M301.2 183 c-0.6 -1.1 -1.2 -3.6 -1.2 -5.5 0 -2.8 0.4 -3.5 2 -3.5 1.8 0 2 0.7 2 5.5 0 5.8 -0.7 6.8 -2.8 3.5z"/>
  <path d="M307 168.5 c0 -2.4 0.5 -3.5 1.5 -3.5 0.8 0 1.5 -0.9 1.5 -2 0 -2.2 1.7 -2.4 10.8 -1.4 l5.2 0.7 0 3.9 0 3.9 -2.6 -2 c-4 -3.1 -9 -2.8 -12.4 0.9 -1.5 1.7 -3.1 3 -3.4 3 -0.3 0 -0.6 -1.6 -0.6 -3.5z"/>
  <path d="M196.6 125.3 c-0.8 -2 -0.7 -2.5 0.2 -2 0.4 0.3 0.8 -2.6 1 -6.3 0.2 -5.5 0 -7 -1.3 -7.8 -1.4 -0.7 -1.1 -1.5 2 -5.2 5.5 -6.6 7.7 -12.4 7.9 -20.5 0.1 -6 -0.1 -7 -1.6 -6.7 -1.3 0.2 -1.7 -0.5 -1.6 -3.8 0 -2.7 0.5 -4 1.4 -4 0.8 0 1.4 -1 1.4 -2.5 0 -3 -4.1 -11.5 -6.4 -13.4 -2.5 -2.1 -1.9 -4.1 1.2 -4.1 4.4 0 7.1 1.1 7.7 3.1 0.6 1.9 3.5 2.7 3.5 1 0 -0.5 0.3 -1.6 0.6 -2.5 0.5 -1.3 -0.2 -1.6 -3.5 -1.6 -4 0 -4.1 -0.1 -4.1 -3.5 0 -2.8 -0.4 -3.5 -2 -3.5 -1.1 0 -2 0.5 -2 1 0 0.6 -1.1 1 -2.4 1 -1.6 0 -2.7 0.7 -3.1 2 -0.8 2.6 -1.5 2.5 -4.5 -0.3 -1.4 -1.3 -3 -2.2 -3.7 -2 -0.6 0.2 -1.7 -0.2 -2.4 -1 -0.8 -0.7 -1.9 -1.2 -2.5 -1 -1.5 0.5 -2.6 -4 -1.8 -7.1 0.3 -1.3 0.1 -4 -0.4 -6 l-1 -3.6 3.2 0 c5.7 0 19.6 5.7 19.6 8.1 0 0.5 0.9 0.9 1.9 0.9 5.1 0 20.2 21.7 21.7 31.2 0.4 2.3 1.2 3.8 2 3.8 1 0 1.4 1.3 1.4 4 0 2.2 -0.4 4 -1 4 -0.5 0 -1 2.4 -1 5.3 0 11.6 -4.8 23.1 -13.5 32.6 -6.5 6.9 -16 12.8 -16.9 10.4z"/>
  <path d="M300.4 46.5 c0.4 -1.6 0.2 -2.5 -0.6 -2.5 -0.9 0 -0.9 -0.3 -0.1 -1.1 1.5 -1.5 6.2 -0.3 7 1.6 0.8 2.2 -1.5 4.5 -4.4 4.5 -2.2 0 -2.4 -0.3 -1.9 -2.5z"/>
 </g>
 <g fill="#026db0">
  <path d="M314.3 192.3 c-1.3 -0.2 -2.3 -0.8 -2.3 -1.3 0 -0.5 -0.7 -0.7 -1.5 -0.4 -0.9 0.4 -3 -0.9 -5.4 -3.3 -3.5 -3.4 -4 -4.6 -4.6 -10.4 -0.8 -7.2 0.3 -10.6 4.7 -14.5 5.8 -5.4 12.7 -6.7 19.5 -3.9 4.8 2 7.1 4.1 9.4 8.7 6.5 12.8 -5.4 27.9 -19.8 25.1z m7.1 -9.7 c2.4 -1 3.7 -2.4 4.5 -4.9 1.1 -3.1 0.9 -4.1 -1.1 -7.9 -2 -3.8 -2.7 -4.3 -5.5 -4.1 -1.8 0.1 -3.3 -0.3 -3.3 -0.8 0 -0.5 -0.7 -0.9 -1.5 -0.9 -0.8 0 -1.5 0.7 -1.5 1.5 0 0.7 -0.7 1.8 -1.6 2.3 -2 1.1 -2.9 7.9 -1.5 11.4 0.7 1.8 2.1 3 4.3 3.7 1.8 0.5 3.4 1 3.6 1 0.1 0.1 1.8 -0.5 3.6 -1.3z"/>
  <path d="M257.5 190.9 c-0.4 -0.6 -0.5 -1.3 -0.2 -1.5 0.7 -0.8 5.7 0.7 5.7 1.7 0 1.3 -4.7 1.1 -5.5 -0.2z"/>
  <path d="M271.9 169.4 c-1.2 -1.4 -1.1 -1.6 0.5 -1.3 1.1 0.2 2.1 1 2.4 1.7 0.5 1.7 -1.3 1.5 -2.9 -0.4z"/>
  <path d="M215.2 110.4 c-1 -1.1 -0.9 -1.9 1 -4.4 2.2 -3.1 4.8 -4 4.8 -1.7 0 0.7 -1 2.7 -2.3 4.4 -1.8 2.5 -2.4 2.8 -3.5 1.7z"/>
  <path d="M221.8 99.3 c-1 -0.2 -1.5 -1 -1.1 -1.9 0.8 -2.1 3.3 -1.7 3.3 0.6 0 1.1 -0.1 1.9 -0.2 1.9 -0.2 -0.1 -1.1 -0.3 -2 -0.6z"/>
  <path d="M223.7 82.3 c0.2 -3.8 0.8 -6.9 1.3 -7.1 0.6 -0.2 1 -1.5 1 -2.8 0 -1.7 0.6 -2.4 2 -2.4 1.6 0 2 0.7 2 3.5 0 2.4 -0.5 3.5 -1.5 3.5 -1.2 0 -1.5 1.3 -1.5 6 0 5.2 -0.3 6 -1.9 6 -1.7 0 -1.8 -0.7 -1.4 -6.7z"/>
  <path d="M208.2 80 c0 -1.9 0.2 -2.7 0.5 -1.7 0.2 0.9 0.2 2.5 0 3.5 -0.3 0.9 -0.5 0.1 -0.5 -1.8z"/>
  <path d="M203 73 c0 -3.3 0.3 -4 2 -4 1.6 0 2 0.7 2 3.4 0 2.2 -0.6 3.6 -1.6 4 -2.4 0.9 -2.4 0.9 -2.4 -3.4z"/>
  <path d="M221.7 64.3 c-0.4 -0.3 -0.7 -1.5 -0.7 -2.5 0 -1 -0.9 -3.7 -2 -5.8 -2 -3.8 -2 -4 -0.2 -4 1.9 0 3.2 2.2 5.8 9.3 1.2 3.4 1.2 3.7 -0.5 3.7 -1 0 -2.1 -0.3 -2.4 -0.7z"/>
  <path d="M206 58.3 c0 -1.6 -0.4 -3.3 -0.8 -3.9 -1 -1.5 -4 -2.5 -4.4 -1.4 -0.2 0.4 -2.3 -0.9 -4.7 -3.1 -3.6 -3.2 -4.2 -4.3 -3.7 -6.4 0.5 -1.8 1.3 -2.5 2.9 -2.5 2 0 2.3 -0.4 1.9 -3 -0.3 -2.1 0 -3 0.9 -3 0.8 0 -0.2 -1.4 -2.1 -3 l-3.5 -2.9 3.7 0.8 c4.9 1.1 11 5 10.4 6.6 -0.6 1.7 1.3 3.5 3.8 3.5 1.7 0 1.8 0.2 0.6 1 -1.2 0.8 -1.2 1 0.5 1 2 0.1 7.5 6 5.6 6 -0.6 0 -1.1 0.5 -1.1 1 0 0.6 0.7 1 1.5 1 1.2 0 1 0.5 -0.5 2 -1.4 1.4 -1.8 2.8 -1.4 4.5 0.5 2 0.2 2.5 -1.4 2.5 -1.1 0 -2.3 -0.6 -2.5 -1.2 -0.4 -0.8 -0.8 -0.4 -1.2 1 -1.1 3.3 -4.5 2.9 -4.5 -0.5z"/>
  <path d="M284.1 38.6 c-0.7 -0.8 -1.5 -2.9 -1.7 -4.5 -0.5 -3 -0.4 -3.1 3 -3.1 3.3 0 3.6 0.3 3.6 2.8 0 1.6 -0.8 3.6 -1.9 4.6 -1.6 1.4 -2 1.5 -3 0.2z"/>
 </g>
 <g fill="#020437">
  <path d="M101.3 191.8 c-9.1 -2 -15.2 -13.3 -12.3 -22.5 3.2 -10 15.3 -15.1 25.6 -10.8 2.9 1.2 3.3 1.7 2.5 3.2 -2.7 4.6 -3.5 5.1 -8.6 4.6 -4.1 -0.4 -5.5 -0.1 -7.7 1.7 -2.3 1.8 -2.8 2.9 -2.8 6.6 0 5.9 2.5 8.4 8.3 8.4 2.4 0 4.9 -0.6 5.6 -1.2 1 -1.1 1.7 -0.7 3.7 1.6 2.9 3.2 2.7 4.3 -0.7 6.7 -3.1 2.2 -8.4 2.9 -13.6 1.7z"/>
  <path d="M8 174.6 l0 -17.6 6.3 0 c16.4 0 25.4 8 23.4 20.7 -0.8 4.5 -2.7 7.5 -7.2 10.9 -3.1 2.4 -4.7 2.7 -13 3.2 l-9.5 0.5 0 -17.7z m17 7.4 c1 -0.5 2.3 -2.5 2.9 -4.3 1.6 -4.8 -0.1 -9.1 -4.5 -11.2 -5.7 -2.7 -6.4 -1.8 -6.4 8 l0 8.5 3.1 0 c1.7 0 3.9 -0.4 4.9 -1z"/>
  <path d="M55.4 191.1 c-3.9 -1.7 -9.3 -9.1 -10 -13.7 -2 -13.3 11.6 -24.1 24.3 -19.3 12.4 4.6 15.2 22 4.9 30.3 -3.2 2.6 -4.7 3.1 -10.4 3.3 -3.7 0.2 -7.6 -0.1 -8.8 -0.6z m13.4 -9.1 c0.2 0 0.9 -1.5 1.7 -3.4 2.9 -7 -0.5 -12.6 -7.5 -12.6 -6.7 0 -10.5 6.7 -7.3 13 2 3.9 5.2 5.1 9.8 3.8 1.6 -0.4 3.1 -0.8 3.3 -0.8z"/>
  <path d="M133.6 190.4 c-0.3 -0.9 -0.6 -6.9 -0.6 -13.5 l0 -11.9 -4.5 0 -4.5 0 0 -4 0 -4 12.9 0 c14 0 15.3 0.5 14.4 5.2 -0.4 2.3 -1.1 2.7 -4.7 3 l-4.1 0.3 -0.3 13.3 -0.3 13.2 -3.8 0 c-2.6 0 -4.1 -0.5 -4.5 -1.6z"/>
  <path d="M165.4 190.1 c-5.2 -3.2 -7.8 -7.7 -8.2 -14.6 -0.4 -7.7 2.4 -12.8 8.7 -16.2 14.8 -7.8 31.8 6.1 26 21.4 -1.3 3.4 -5.5 8 -9.1 9.9 -4 2.1 -13.6 1.8 -17.4 -0.5z m15.4 -9.4 c3.1 -2.8 3.1 -9.8 0 -12.7 -5.3 -4.9 -14.8 -1.1 -14.8 6 0 4.7 2 7.9 5.4 8.8 3.9 1.1 6.5 0.5 9.4 -2.1z"/>
  <path d="M201.4 190.7 c-0.2 -0.7 -0.3 -8.5 -0.2 -17.2 l0.3 -16 5 -0.3 c13.3 -0.9 19.5 2.8 19.5 11.6 0 4 -0.6 5.7 -2.6 8.1 l-2.5 3.1 2.4 3.2 c1.3 1.8 3.2 4.5 4.2 6.1 l1.7 2.7 -5.1 0 c-5.1 0 -5.1 0 -8.7 -5.5 -2 -3 -4.1 -5.5 -4.5 -5.5 -0.5 0 -0.9 2.5 -0.9 5.5 l0 5.5 -4 0 c-2.4 0 -4.3 -0.5 -4.6 -1.3z m14.5 -18.1 c0.7 -0.8 1.1 -2.7 0.9 -4.3 -0.2 -2.3 -0.8 -2.9 -3.5 -3.1 -3.3 -0.3 -3.3 -0.3 -3.3 4.2 0 4.2 0.2 4.6 2.4 4.6 1.3 0 2.9 -0.6 3.5 -1.4z"/>
  <path d="M238 174.4 l0 -17.5 4.3 0.3 4.2 0.3 0.3 14 c0.2 7.7 0 15.5 -0.3 17.3 -0.5 3 -0.9 3.2 -4.5 3.2 l-4 0 0 -17.6z"/>
  <path d="M51.5 131.9 c-2.7 -2.4 -3.5 -3.9 -3.5 -6.4 0 -4 3.5 -8.5 7.8 -10.1 2.7 -1 3.5 -0.9 6.5 1.2 6 4 5.9 13.1 -0.2 16.7 -4.2 2.4 -6.5 2.1 -10.6 -1.4z"/>
  <path d="M261.5 98.1 c-8.6 -2.2 -19.2 -10.9 -21.6 -17.6 -1.3 -3.4 -1.4 -3.5 -7 -3.5 -5.5 0 -5.7 -0.1 -6.3 -3.1 -0.9 -4.9 -0.9 -4.9 4.3 -4.9 l4.9 0 0.6 -4.7 c1.6 -11.1 3.2 -13.7 17.1 -27 7.1 -6.9 14.4 -13.2 16.2 -13.9 6.5 -2.8 11.1 -1.4 17.7 5.5 3.9 3.9 3.9 4 2.2 6.6 -2.1 3.1 -4.3 4.2 -5.8 2.7 -0.8 -0.8 -0.7 -1.3 0.5 -1.8 0.9 -0.3 1.7 -1 1.7 -1.5 0 -0.6 -1 -0.5 -2.1 0.2 -1.5 0.8 -1.9 0.8 -1.5 0 1.3 -2 -4 -6.1 -7.8 -6.1 -3.1 0 -4.8 1.3 -16.5 12.8 -11 10.8 -13.1 13.4 -14.1 17.2 -3.2 12.2 2.6 25.2 13.6 30.5 5.6 2.7 15.6 2.6 21.5 -0.3 4.9 -2.4 30.4 -26.1 31.4 -29.3 0.9 -2.9 -0.4 -5.9 -2.6 -5.9 -1 0 -1.9 -0.5 -1.9 -1.1 0 -0.5 -0.4 -0.8 -0.9 -0.4 -0.5 0.3 -2.1 0 -3.5 -0.7 -2 -0.9 -2.5 -1.6 -2 -3.2 0.6 -1.9 4.2 -5.5 5.6 -5.6 0.3 0 3.1 2.4 6.2 5.3 5.3 5 5.6 5.5 5.6 10.2 l0 4.9 -12.2 11.9 c-15.5 15 -19.2 18.1 -25.2 20.6 -5.4 2.4 -13.7 3.4 -18.1 2.2z"/>
  <path d="M166 83.7 c0 -3.2 0.2 -3.4 9.3 -7 9.2 -3.6 24.1 -7.7 28.5 -7.7 2.1 0 2.3 0.4 2 3.8 l-0.3 3.7 -6.3 0.7 c-6.8 0.7 -16.5 3.6 -24.9 7.4 -7.1 3.3 -8.3 3.1 -8.3 -0.9z"/>
 </g>
</svg>